<svg width="483" height="476" viewBox="0 0 483 476" fill="none" xmlns="http://www.w3.org/2000/svg">
<path fill-rule="evenodd" clip-rule="evenodd" d="M190.191 475.475C85.0055 475.475 0 390.47 0 285.284C0 180.099 85.0055 95.0938 190.191 95.0938C295.376 95.0938 380.381 180.099 380.381 285.284C380.381 390.47 295.376 475.475 190.191 475.475Z" fill="#5AB1C7"/>
<path fill-rule="evenodd" clip-rule="evenodd" d="M309.909 183.813C311.844 184.859 313.726 186.114 315.712 187.002C317.908 187.943 317.594 187.002 317.385 186.532C317.56 186.741 317.716 186.95 317.856 187.159C317.908 186.793 317.96 186.532 318.536 186.323V186.218C318.274 184.964 318.274 184.964 319.163 183.918C319.058 184.754 319.32 185.539 319.111 186.375C319.006 186.375 318.849 186.427 318.745 186.48C319.006 187.63 318.954 187.734 318.849 188.153C318.745 188.153 318.64 188.1 318.536 188.048C318.536 188.048 318.518 188.048 318.483 188.048C319.111 188.832 320.104 189.041 320.784 189.616C320.731 190.087 320.365 192.439 317.49 193.59C320.888 196.413 323.397 201.222 326.796 207.914C326.586 207.391 326.586 207.391 326.534 207.182C326.586 207.234 329.723 211.678 329.671 214.083C329.671 214.135 329.619 214.187 329.566 214.187C328.521 213.612 328.678 212.305 327.893 211.521C327.841 211.573 327.789 211.626 327.789 211.678C327.893 212.096 328.103 212.462 328.155 212.828C327.893 212.567 327.893 212.567 327.632 212.567C327.684 213.246 328.155 213.821 327.946 214.553C327.58 214.449 326.743 213.769 327.162 213.246C327.109 213.142 326.952 213.09 326.848 213.037C326.691 213.246 326.534 213.456 327.057 214.658C326.691 214.553 326.534 214.553 326.011 214.553C325.977 214.553 325.959 214.553 325.959 214.553C325.959 214.553 325.942 214.553 325.907 214.553C325.872 214.553 325.855 214.553 325.855 214.553C325.279 214.553 325.175 214.501 324.809 214.344C324.914 214.71 325.07 215.704 324.861 217.063C324.495 218.579 323.711 217.429 323.45 217.063C323.136 216.645 323.032 216.383 322.666 215.808C322.735 216.226 322.805 216.645 322.875 217.063C322.927 217.115 322.927 217.272 322.927 217.324C323.066 218.056 323.188 218.788 323.293 219.52C322.613 218.997 322.3 218.945 322.143 219.206C321.986 219.363 322.038 219.886 322.038 220.095C322.038 220.931 321.986 221.141 321.881 221.506C320.784 220.2 319.842 219.52 318.536 219.154C319.581 219.102 320.052 218.474 320.627 217.063C321.149 215.756 321.411 215.285 322.038 214.867C320.574 213.037 315.974 214.815 315.347 216.54C315.765 216.645 315.869 216.697 316.34 217.063C318.536 218.893 319.895 222.5 320.156 223.859C320.522 225.741 319.686 225.427 319.477 225.271C317.751 223.964 316.915 221.925 315.556 220.356C315.503 220.252 315.503 220.252 315.451 220.252C315.399 220.304 315.347 220.356 315.347 220.827C315.137 220.252 315.033 220.095 314.353 219.415C313.569 218.579 313.464 218.108 313.726 217.063C314.196 215.599 316.706 208.541 321.306 211.208C318.64 206.032 319.79 206.032 320.47 206.032C321.881 205.98 321.881 199.602 316.758 194.792C317.385 195.262 318.17 195.524 318.745 196.047C318.431 195.576 318.431 195.576 317.333 194.217C317.333 194.217 317.333 194.269 317.333 194.426C317.176 194.583 317.072 194.687 316.34 194.374C316.288 194.374 310.851 191.655 313.987 189.982C313.621 189.825 313.151 189.512 312.942 189.198C312.001 187.682 311.478 185.957 310.537 184.441C310.328 184.284 310.119 184.023 309.909 183.813ZM115.223 121.236C115.798 121.131 116.373 120.817 117.784 120.138C119.562 119.249 119.771 119.144 120.085 119.197C120.189 119.353 120.085 119.719 118.778 120.451C119.091 120.608 119.457 120.556 120.555 120.347C121.339 120.19 121.444 120.19 121.862 120.138C122.019 119.615 122.071 119.458 121.862 119.144C121.549 118.726 121.026 118.674 120.607 118.412C121.392 118.36 122.803 118.308 125.313 117.89C127.299 117.576 126.672 116.478 126.672 116.478C126.41 116.269 125.888 116.321 125.574 116.321C123.535 116.426 121.705 117.053 121.13 117.315C121.13 117.349 121.13 117.384 121.13 117.419C120.817 117.419 120.555 117.419 120.294 117.524C120.137 117.524 120.137 117.733 119.98 117.733C120.137 117.785 120.242 117.837 120.555 117.837C120.451 117.907 120.329 117.959 120.189 117.994C119.666 117.733 119.144 117.942 118.464 118.622C118.412 118.308 117.994 118.099 118.255 117.733C117.994 117.837 117.262 118.203 116.687 117.942C116.634 117.942 116.477 117.942 116.425 117.994C116.112 118.151 116.007 118.569 115.693 118.726C115.746 118.569 115.746 118.569 115.693 118.465C115.432 118.465 115.066 119.04 115.17 119.197C115.327 119.406 115.432 119.144 115.641 118.831C116.425 119.092 117.209 118.726 117.994 119.04C114.439 120.399 114.439 120.399 114.282 120.66C114.386 120.974 115.223 121.236 115.223 121.236ZM69.9492 138.174C71.0471 137.442 76.2227 133.939 76.275 133.887C76.2227 133.939 76.1181 133.992 76.0659 134.044C76.6409 133.992 76.7978 133.992 78.523 132.998C80.1959 131.953 82.5484 132.057 83.6463 129.966C83.1758 130.018 82.7576 130.227 82.3393 130.332C83.1758 129.862 84.0123 129.339 84.8487 128.868C84.535 129.182 84.1691 129.496 83.8031 129.809C84.4828 129.705 86.208 128.607 86.3125 128.45C86.1557 128.502 85.9466 128.607 85.7897 128.711C86.3125 128.398 86.8353 128.136 87.3581 127.77C87.2013 127.875 86.9922 127.979 86.8353 128.032C86.8353 127.979 86.8353 127.979 89.0833 125.941C89.3447 125.993 89.9198 126.15 90.2334 125.418C90.2334 125.522 90.2857 125.627 90.2857 125.679C91.1222 125.941 91.5404 125.156 92.1678 124.947C91.8018 125 91.8018 125 91.2268 125.261C92.6906 124.372 92.7428 124.372 93.893 124.111C95.3568 123.64 96.2978 122.333 97.6571 121.706C97.5525 121.706 97.5002 121.706 97.3957 121.758C97.3957 121.654 97.4479 121.549 97.4479 121.445C98.3367 120.922 99.4868 121.131 100.323 120.347C100.271 120.347 100.166 120.347 100.062 120.347C100.376 120.19 100.742 120.138 101.003 119.876C100.794 119.876 100.794 119.876 100.01 120.085C103.146 118.465 106.597 117.628 109.838 116.269C110.047 116.164 110.361 116.008 110.57 115.955C109.368 115.589 109.368 115.589 105.29 117.053C106.544 115.223 109.733 116.792 110.465 114.126C110.309 114.073 110.047 113.969 109.89 113.969C109.002 114.126 107.799 114.439 107.276 114.648C107.242 114.683 107.189 114.718 107.12 114.753L107.224 114.701H107.172L107.015 114.805C107.015 114.805 106.998 114.805 106.963 114.805H107.015V114.753H107.067C107.12 114.753 107.224 114.701 107.276 114.648C105.865 114.962 105.865 114.962 104.401 115.799C104.61 115.589 104.61 115.589 105.185 115.223C104.819 115.38 104.453 115.589 104.087 115.746C104.14 115.694 104.244 115.642 104.349 115.642C104.14 115.694 103.878 115.799 103.721 115.903C103.878 115.799 104.14 115.694 104.349 115.589C103.878 115.799 103.355 116.06 102.78 116.321C94.1021 120.87 85.7375 126.045 77.8956 131.796C73.4693 135.072 69.1825 138.505 65.035 142.095C66.917 140.526 70.4197 137.547 71.4653 136.867C70.9948 137.337 70.472 137.703 69.9492 138.174ZM251.253 273.838C251.148 273.629 250.991 273.419 250.834 273.21C247.593 275.354 247.593 275.354 246.652 274.151C245.345 272.426 244.979 269.812 244.822 268.505C244.038 263.121 239.647 259.932 237.033 255.645C236.771 255.174 236.405 254.442 236.092 253.972C235.778 253.449 235.307 252.874 234.994 252.403C234.523 252.456 233.896 252.456 233.425 252.508C233.164 254.756 233.164 254.756 232.275 255.749C232.014 255.383 231.7 254.86 231.491 254.442C231.282 254.808 230.864 255.226 230.55 255.488C230.132 255.331 229.505 255.279 229.086 255.279C228.929 255.488 228.72 255.749 228.563 255.906C228.459 255.749 228.25 255.592 228.093 255.436C227.936 255.54 227.675 255.697 227.518 255.801C227.204 255.488 226.995 254.913 226.943 254.494C223.492 262.493 214.291 265.63 210.789 273.576C207.443 281.209 209.691 290.044 205.874 297.625C205.299 298.722 204.567 300.395 203.522 301.075C199.13 303.689 179.16 267.721 185.433 255.749C185.224 255.645 184.963 255.436 184.754 255.279C184.701 254.86 184.597 254.338 184.44 253.919C184.231 253.867 183.97 253.815 183.76 253.763C183.865 254.024 184.074 254.338 184.126 254.599C184.701 256.795 181.774 259.095 180.049 258.834C176.86 258.311 177.435 254.547 175.187 253.24C177.382 253.031 177.696 252.351 177.957 251.671C176.023 251.776 174.402 251.462 171.789 249.476C167.763 246.13 167.24 244.039 167.083 243.359C159.869 239.543 151.661 245.868 144.551 241.216C143.872 240.745 142.931 240.066 142.199 239.647C138.853 237.661 134.984 239.856 131.586 238.183C127.299 236.145 127.717 229.976 122.908 228.355C122.646 228.25 122.228 228.303 121.914 228.25C121.914 228.25 120.869 229.505 119.196 230.603C120.869 231.021 121.13 231.439 121.862 234.733L126.933 245.659C129.756 248.796 140.003 248.535 140.473 240.17C142.408 242.209 140.839 245.241 142.46 247.437C144.028 249.58 147.322 249.057 148.786 251.462C149.256 252.194 149.361 253.449 149.152 254.338C148.629 257.108 144.708 264.637 133.834 273.21C133.625 273.367 112.609 289.94 107.956 285.444L90.4948 239.7C90.2857 239.177 90.0243 238.497 89.8675 237.974C88.7174 234.629 88.9787 232.642 89.2924 230.394C87.149 233.269 87.2013 234.263 87.2535 236.249C85.1624 233.374 84.4828 231.701 84.2214 228.93C82.0779 232.642 81.8688 235.465 86.1557 243.098C89.397 248.848 89.397 248.848 94.3112 266.414C96.4024 273.838 98.5981 277.863 102.153 280.634C103.878 281.941 107.015 284.346 107.695 286.019C108.583 288.162 107.642 288.894 105.917 290.306C114.805 293.651 114.805 293.651 117 292.972C128.554 289.521 128.554 289.521 128.711 290.149C128.763 290.619 130.697 302.748 112.347 325.803C94.1544 348.649 107.642 361.353 107.799 361.457C107.747 361.719 107.695 362.137 107.695 362.398C108.008 366.842 110.884 370.606 111.145 375.102C111.459 380.696 105.081 381.689 103.565 386.081C101.63 391.674 108.531 395.02 107.276 400.457C106.754 402.496 105.081 403.751 104.192 404.43C106.858 406.94 109.42 409.345 106.022 418.232C102.78 426.858 95.2522 424.715 95.1999 424.662C93.6838 424.035 76.2227 405.424 75.4908 404.64C70.0015 398.784 58.5524 381.48 58.5001 381.375C55.4157 375.416 56.1999 368.463 53.5336 362.398L53.2722 361.823C53.22 361.719 46.3714 350.322 47.783 347.499C43.3393 345.355 34.3996 334.481 37.85 328.365C34.0336 324.235 38.0591 317.491 33.0926 313.727C32.9357 313.883 32.6744 314.145 32.4652 314.302C32.2038 314.249 31.8902 314.092 31.6288 314.04C31.3151 314.406 30.74 314.772 30.2172 314.824C23.3687 307.924 23.3687 307.924 21.4344 309.387C12.2333 316.184 11.0832 313.57 9.25339 309.178C9.20111 309.126 4.80968 296.527 3.65954 279.013C3.18903 271.851 6.06438 265.055 5.85526 257.893C5.80298 258.154 5.7507 258.52 5.7507 258.781C6.79628 243.725 22.9505 217.272 23.1073 217.063C25.6167 213.456 26.7145 212.044 27.4465 211.73C28.4398 211.312 29.0671 212.201 29.9558 212.358C30.6877 212.515 31.0014 212.41 34.0859 210.319C36.8567 208.384 37.9022 207.809 39.5752 207.391C40.3071 207.234 40.3071 207.234 47.4693 206.712C49.0899 206.659 50.1355 206.659 48.6194 210.005C47.5738 212.358 45.7441 214.344 45.4304 217.063C46.1623 221.977 57.8728 231.23 60.0685 224.173C61.0618 220.879 62.3165 220.2 63.153 220.2C63.5189 220.2 64.0417 220.147 64.3554 220.2C67.9103 220.879 70.0538 224.173 73.5042 225.061C76.7978 225.95 79.7254 223.179 83.019 223.911C83.2803 224.434 83.6463 225.061 84.0122 225.48C88.9265 224.905 91.0176 220.565 92.7428 217.063C95.9841 210.005 94.8863 208.594 94.4158 208.332C94.4158 208.332 86.4171 208.541 84.7442 208.646C81.2937 208.855 79.3594 208.228 78.6798 208.019C78.8366 207.809 78.9412 207.496 79.098 207.287C78.5752 207.182 77.8956 207.078 77.3728 207.078C77.5819 205.771 77.4251 204.359 78.0525 203.104C75.9613 200.856 78.9935 198.765 78.6798 196.517C77.216 195.524 75.909 195.158 74.1315 196.308C74.0793 196.831 74.1838 197.563 74.4452 198.086C73.9224 198.086 73.2951 198.138 72.8246 198.295C72.7723 198.504 72.72 198.87 72.72 199.079C72.4586 198.556 72.0927 197.824 71.779 197.354C71.2039 199.863 73.0337 202.006 72.6677 204.464C72.5632 204.254 72.3541 203.941 72.1972 203.732C72.1972 204.202 71.9358 204.83 71.6744 205.143C71.3085 204.83 70.6288 204.673 70.2106 204.725C70.3675 204.934 70.5766 205.195 70.7334 205.457C70.3675 205.771 69.8447 206.189 69.4787 206.502C69.4264 207.078 69.3742 207.862 69.2696 208.437C69.0605 208.594 68.7991 208.75 68.59 208.907C65.401 206.764 67.3353 204.359 67.9626 203.523C67.4398 203.523 66.342 203.418 66.0806 201.902C65.7146 200.124 66.2897 197.301 66.342 197.249C66.9693 194.321 64.8782 192.021 64.5122 189.355C64.4077 188.623 63.8849 187.787 63.8326 187.055C63.7803 186.427 64.0417 185.539 64.3554 185.016C64.2508 184.807 64.094 184.493 63.9894 184.232C63.7803 184.336 63.4666 184.441 63.2575 184.493C63.0484 184.388 62.7347 184.232 62.5256 184.127C60.1731 185.8 59.2843 186.48 59.6503 189.825C60.0162 193.328 63.4666 195.21 63.9894 198.608C62.8916 199.027 61.846 198.295 60.8004 198.347L60.7481 198.399C60.7481 198.451 60.4345 202.738 58.4479 205.091C56.7749 204.882 55.6771 206.502 54.0564 206.45C52.7495 204.15 57.0886 204.15 58.1865 202.582C61.6369 197.72 56.5135 188.989 56.4613 188.884C54.7361 186.114 51.8607 188.884 49.5082 188.832C49.5082 188.832 49.5082 188.832 48.9331 188.884C48.8808 188.884 41.3527 194.897 37.4317 201.745C34.8178 206.293 32.047 208.96 29.0148 209.796C27.917 209.012 28.0738 207.6 27.3942 206.607C27.1851 206.659 26.8714 206.712 26.61 206.816C28.1784 203.261 28.1784 203.261 28.9625 201.797C28.9103 201.85 28.8057 201.954 28.7534 202.006C34.8701 189.146 34.8701 189.146 39.9934 189.355C42.6596 189.46 49.4036 181.252 46.7897 176.651C48.358 175.71 48.4103 175.658 50.8151 175.083C52.3312 171.214 68.6945 162.17 68.7991 162.118C69.0082 162.274 69.2173 162.484 69.3742 162.64C71.2039 160.706 72.2495 158.197 74.027 156.262C74.2884 156.001 74.7066 155.583 75.0203 155.321H75.1248C76.4841 154.171 77.0592 154.067 77.8433 153.962C76.4841 155.426 75.5431 157.256 73.8179 158.406C74.0793 158.354 74.4452 158.354 74.7066 158.301C73.8179 159.661 73.8179 159.661 72.72 159.765C72.8246 159.504 72.9814 159.138 73.086 158.929C72.1972 160.34 72.2495 160.497 72.72 161.333C72.72 161.333 74.1838 161.177 76.1704 161.02C75.9613 161.177 75.6999 161.333 75.4908 161.49C75.5953 161.699 75.7522 162.013 75.909 162.222C75.9613 162.222 83.3849 161.543 85.0056 160.497C87.3058 156.994 89.3447 154.746 90.9131 153.701C91.3313 153.962 91.8018 154.433 92.0632 154.851C94.7294 154.537 94.1021 151.61 95.5659 150.355C96.4546 149.518 96.4546 149.518 103.878 149.1C103.774 148.787 103.669 148.421 103.617 148.107C103.355 147.95 102.99 147.793 102.728 147.636C102.728 147.48 102.676 147.27 102.624 147.114C96.0364 148.264 96.0364 148.264 94.7817 147.845C96.8206 144.813 96.8206 144.813 104.401 138.958C101.317 136.762 100.48 139.376 100.166 140.265C89.8675 144.238 90.3903 147.375 90.6517 148.891C79.6208 158.458 79.6208 158.458 76.9023 158.667C77.0069 158.354 77.1637 157.988 77.216 157.726C75.0203 159.974 75.0203 159.974 74.3929 160.497C74.1315 160.392 73.8701 160.236 73.661 160.183C75.0203 159.661 75.0203 159.661 75.2294 157.988C78.3139 158.563 80.3004 152.446 81.1369 149.78C78.8366 151.662 77.8433 152.185 76.0136 152.864C75.8567 152.707 75.5953 152.551 75.3862 152.394C75.5431 151.557 76.1181 150.878 76.1181 149.989C78.0002 148.211 79.098 145.65 81.6074 144.552C83.2281 143.768 83.4895 143.663 84.901 142.984C88.9788 140.997 92.586 138.278 96.5069 135.978H96.6115C98.389 134.828 98.8072 134.567 99.1731 134.201C99.2777 134.096 99.3823 133.992 99.5391 133.835C99.0163 133.992 98.2321 134.096 97.7093 134.148C99.1209 133.26 100.794 132.789 102.258 132.005C102.101 132.214 101.944 132.475 101.787 132.632C103.669 132.475 105.081 131.116 106.858 130.593C106.858 130.803 106.806 131.116 106.806 131.378C108.74 130.855 108.74 130.855 109.054 130.541C109.315 130.593 109.681 130.646 109.943 130.698C110.675 129.757 110.779 129.6 112.504 128.973C112.766 129.077 113.027 129.286 113.236 129.391C112.766 129.705 112.191 130.123 111.72 130.437C113.341 129.652 114.961 129.391 115.693 129.286C115.484 129.443 115.223 129.6 115.014 129.757C115.327 129.652 115.693 129.548 115.955 129.443C116.216 129.6 116.53 129.809 116.791 129.914C116.216 130.123 115.484 130.384 114.961 130.541C117.523 130.75 117.523 130.75 117.837 130.75C117.889 131.012 117.941 131.325 117.994 131.534C122.333 132.475 123.953 132.841 124.424 133.887C125.051 135.403 122.437 137.181 121.183 137.39C118.83 137.86 117.105 136.083 114.961 135.821C116.321 141.311 116.321 141.311 117.889 140.945C117.732 140.422 117.471 139.795 117.262 139.376C120.398 139.272 122.751 136.606 125.992 136.658C126.149 136.867 126.306 137.128 126.463 137.337C127.665 134.619 127.665 134.619 127.927 133.678C127.822 133.469 127.665 133.207 127.508 132.998C129.599 131.918 130.68 132.354 130.75 134.305C128.92 134.358 128.554 134.462 128.293 135.874C132.632 136.187 135.664 132.162 139.951 132.475C139.532 132.789 138.957 133.207 138.539 133.573C144.969 133.26 145.963 132.737 147.113 132.11C147.061 132.005 147.061 132.005 144.708 130.227C155.321 133.417 155.321 133.417 155.739 133.26C154.38 131.9 153.857 130.593 154.066 129.443C154.432 127.561 156.837 127.404 157.255 125.627C157.778 125.679 158.457 125.836 158.928 125.993C158.928 125.993 158.928 125.993 159.032 125.993C159.294 126.045 159.608 126.15 159.817 126.254C160.915 128.607 160.496 131.378 161.699 133.73C161.071 135.455 160.967 135.665 158.667 136.606C164.104 136.24 163.528 134.148 163.163 132.998C165.515 131.796 166.718 134.201 168.547 134.671C166.038 132.475 162.587 131.534 160.81 128.398C162.012 127.614 162.012 127.614 162.326 126.359C162.535 126.516 162.797 126.725 163.006 126.829C163.006 127.457 163.11 128.293 163.267 128.868C163.738 129.13 163.738 129.13 166.718 129.339C166.404 128.921 166.404 128.921 164.313 127.823C164.522 127.875 164.835 127.979 165.045 128.032C165.254 127.875 165.463 127.666 165.672 127.509C165.463 127.404 165.201 127.248 164.992 127.091C165.045 127.091 168.704 127.927 171.004 128.032C169.907 126.516 169.279 126.15 167.397 125.836C167.397 125.836 167.397 125.836 167.763 125.679C169.802 125.156 171.998 125.784 174.037 124.947C173.827 124.843 173.514 124.686 173.305 124.634C172.834 122.49 173.932 122.49 178.585 122.595C178.951 122.229 179.526 121.915 179.996 121.811C179.996 121.811 181.303 122.177 184.545 122.02C184.336 121.863 184.074 121.706 183.865 121.549C184.126 121.549 184.388 121.549 184.597 121.549C185.433 120.451 185.433 120.451 186.531 120.242C195.837 120.033 203.365 126.986 212.671 126.829C212.828 126.673 212.984 126.411 213.141 126.202C213.037 125.993 212.984 125.679 212.88 125.418C217.48 126.568 221.454 130.123 226.629 129.077C226.525 128.816 226.42 128.45 226.368 128.189C228.668 127.457 230.811 128.607 233.059 128.816C233.059 128.816 233.059 128.816 232.537 128.711C232.38 128.555 232.171 128.345 231.962 128.189C232.85 128.136 232.85 128.136 234.314 128.293C233.791 128.084 233.059 127.77 232.484 127.561C232.432 127.3 232.328 127.038 232.223 126.829C240.849 126.097 241.424 126.568 243.672 128.345C247.593 131.482 252.141 129.339 256.324 129.862C260.035 130.332 263.799 130.384 267.511 130.855C267.93 130.907 268.557 131.169 268.923 131.43C268.714 131.378 268.4 131.273 268.191 131.221C271.275 132.319 271.746 132.371 273.21 132.632C269.864 131.221 269.864 131.221 269.498 130.437C276.765 130.018 294.592 134.933 297.467 138.122C297.258 138.122 296.944 138.122 296.683 138.122C297.049 138.278 298.879 139.167 300.395 140.37C296.16 142.565 293.808 138.174 290.357 137.494C292.082 138.644 292.082 138.644 292.71 139.115C292.553 139.272 292.396 139.533 292.291 139.742C295.219 141.311 298.408 142.408 301.179 144.343C300.186 143.977 300.029 143.925 298.617 143.768C298.774 144.081 299.035 144.5 299.192 144.813C299.035 145.022 298.826 145.284 298.67 145.493C299.558 146.329 299.767 146.486 300.813 148.264C300.708 148.421 300.552 148.682 300.447 148.891C296.787 148.107 295.899 148.316 295.115 148.525C295.428 150.459 300.499 153.335 300.552 153.387C300.604 153.387 306.355 156.837 309.334 160.288C309.282 160.602 309.23 160.967 309.23 161.229C309.962 162.118 309.962 162.118 312.001 164.209C312.001 164.209 312.001 164.209 311.687 164.313C312.157 166.091 313.464 167.398 314.353 168.966C314.51 169.175 314.667 170.064 314.824 170.848C314.667 170.691 314.405 170.43 314.249 170.221H314.196C314.092 169.959 314.249 169.541 314.301 169.28C308.498 162.954 300.708 159.085 294.383 153.439C294.539 153.178 294.749 152.864 294.905 152.655C292.448 145.963 287.9 143.82 286.593 143.872C287.952 144.866 288.318 145.127 289.573 145.859C289.312 145.859 288.998 145.911 288.789 145.911C288.946 146.486 289.259 147.218 289.468 147.741C285.548 145.075 285.129 144.97 283.352 144.552C283.195 144.709 282.986 144.918 282.829 145.127C283.038 146.486 283.038 146.486 288.161 150.669C286.384 153.126 284.397 151.348 284.031 150.982C284.188 150.825 284.45 150.669 284.606 150.512C284.606 150.512 284.607 150.512 284.502 150.459C284.084 150.407 283.456 150.355 283.038 150.355C283.038 150.355 283.021 150.355 282.986 150.355C282.951 150.355 282.934 150.355 282.934 150.355C282.934 150.355 282.916 150.355 282.881 150.355C282.846 150.355 282.829 150.355 282.829 150.355C282.829 150.355 282.812 150.355 282.777 150.355C282.777 150.355 282.777 150.355 282.254 150.355C281.731 150.303 280.999 150.25 280.476 150.198C280.511 150.198 280.546 150.215 280.581 150.25C278.176 150.878 275.615 148.211 273.367 150.669C271.537 152.655 271.38 162.17 279.849 162.327C277.392 160.079 277.392 160.079 277.131 159.347C277.131 159.347 280.372 161.386 280.999 163.059C281.365 162.85 281.888 162.588 282.306 162.484C281.94 162.17 281.522 161.595 281.365 161.177C283.3 161.177 286.018 161.699 288.266 164.261C288.057 164.209 287.743 164.157 287.534 164.157C300.499 171.842 303.741 186.427 301.754 190.766C301.493 190.871 301.127 190.976 300.865 191.08C299.924 190.61 299.924 190.61 298.879 189.46C298.722 189.616 298.513 189.825 298.356 189.982C298.251 189.825 298.094 189.564 297.99 189.355C298.199 189.878 298.356 190.662 298.304 191.237C298.094 191.237 297.781 191.185 297.519 191.132C300.865 193.955 297.781 198.295 299.976 201.379C301.859 204.098 305.623 204.777 307.191 207.862C307.818 209.116 307.818 209.116 308.759 213.403C308.341 213.456 307.766 213.612 307.348 213.769C307.348 214.031 307.348 214.292 307.348 214.501C303.061 216.174 301.336 208.019 301.493 207.234C301.649 207.391 301.911 207.6 302.068 207.705C301.859 206.502 301.754 206.084 299.82 205.091L299.872 205.039H299.715C299.715 205.039 299.733 205.056 299.767 205.091C298.356 204.62 296.84 204.516 295.481 203.888C295.324 203.418 295.376 202.738 295.637 202.32C293.912 201.484 293.128 199.183 290.88 199.183C288.789 199.183 289.834 202.425 287.743 202.372C287.482 202.372 287.22 202.216 286.959 202.163C286.75 200.386 286.541 200.334 285.652 200.02C285.809 199.758 286.07 199.497 286.123 199.183C286.227 198.556 285.182 195.785 283.247 196.569C283.143 196.569 277.601 200.386 280.267 203.366C283.561 206.973 288.423 204.516 292.135 206.45C291.769 208.384 289.573 209.587 289.887 211.783C289.991 212.619 290.043 213.299 293.442 217.063C296.369 220.147 298.67 222.291 300.918 224.016C300.761 224.12 300.552 224.277 300.342 224.382C299.192 223.859 298.46 222.657 297.153 222.343C297.31 222.395 300.186 223.702 300.604 227.466C300.447 227.623 300.238 227.832 300.133 227.989C303.322 228.669 303.322 228.669 303.95 231.021C303.897 231.23 303.688 231.439 303.531 231.596C304.368 233.374 304.316 233.531 304.159 234.681C303.95 234.733 303.688 234.785 303.427 234.785C303.061 235.883 302.643 240.954 303.531 243.098H303.584C303.584 243.098 303.584 243.098 303.793 242.836C303.322 245.712 303.27 246.13 301.127 248.221C298.774 250.574 295.428 251.358 292.971 253.501C292.71 252.665 292.605 252.351 291.612 251.724C292.396 253.292 292.553 253.606 290.619 256.063C290.566 256.011 286.123 252.508 285.182 260.454C286.802 261.814 287.482 263.068 286.698 266.153C285.966 268.453 283.718 268.976 282.411 269.08C282.672 268.61 282.986 267.982 283.247 267.512C283.509 261.238 283.509 261.238 284.554 260.611C284.554 259.67 284.554 257.579 283.195 256.952C282.463 256.638 274.203 257.37 274.726 262.023C275.771 270.701 285.129 274.883 286.384 283.509C286.802 286.541 285.548 297.102 280.999 293.704C280.842 296.004 278.751 301.964 275.667 300.343C275.98 299.82 276.399 299.193 276.66 298.722C274.987 291.978 267.459 289.783 264.95 283.666C259.617 287.221 261.29 295.952 261.499 296.893C262.388 300.918 265.943 303.009 268.086 306.094C271.641 311.479 270.543 318.17 273.053 323.816C273.157 324.078 273.576 324.287 273.785 324.444C268.452 325.437 266.518 321.098 264.427 311.583C262.649 303.584 261.761 301.023 258.833 303.323C258.153 300.657 257.84 299.507 258.467 294.749C260.088 282.15 254.494 272.844 252.716 270.283C252.769 273.158 252.194 273.419 251.253 273.838ZM138.644 128.921C138.696 129.077 138.696 129.182 139.219 129.339C139.323 129.234 139.428 129.13 139.48 129.025C139.428 128.921 139.376 128.868 139.323 128.764C139.323 128.711 139.428 128.607 139.48 128.502C140.735 130.437 142.199 130.75 143.924 129.6C143.453 128.711 142.721 127.979 142.356 127.091C143.558 126.777 144.708 125.732 145.022 124.686C145.701 125 146.486 124.529 148.42 123.379C150.459 122.177 152.864 122.49 155.059 121.811C155.321 121.706 155.634 121.549 155.896 121.497C154.432 121.236 152.916 121.131 151.504 121.131C150.616 121.183 150.25 121.236 149.57 121.445C149.099 121.549 148.838 121.967 148.368 122.072C146.852 122.595 145.231 122.856 143.715 123.431C143.976 123.797 143.872 123.902 142.826 124.425C142.774 124.477 138.016 127.457 138.069 128.136C138.435 128.345 138.957 128.293 139.271 128.607C138.801 128.711 138.748 128.764 138.644 128.921ZM309.282 213.769C309.317 213.804 309.352 213.821 309.387 213.821C309.352 213.787 309.317 213.769 309.282 213.769ZM57.0886 163.581C55.6771 164.522 55.6771 164.522 53.0631 167.502C53.0631 167.502 52.8017 168.339 53.5336 168.339C54.0042 168.339 54.6315 167.973 54.8929 167.816C54.5792 168.025 54.4224 168.13 54.2133 168.287C57.1932 166.77 57.8205 167.45 57.9774 168.234C58.3956 166.927 59.7026 166.561 60.4345 165.673C61.4278 164.47 60.539 164.575 60.0685 164.627C59.8071 164.627 59.8071 164.627 59.6503 164.627C60.2253 163.947 61.0618 162.954 60.905 162.536C61.6369 162.797 62.7347 157.674 62.7347 157.622C62.6824 157.569 62.6302 157.517 62.5779 157.413C64.2508 156.733 66.9693 154.328 67.0739 153.544C66.8648 153.282 66.4988 153.439 65.035 154.067C67.4398 152.289 67.4398 152.289 68.0672 151.662C67.8581 151.819 67.6489 152.08 67.4398 152.237C65.3487 153.805 63.8849 154.224 63.5189 154.276C63.6235 154.119 63.728 153.962 63.8326 153.753C63.7977 153.753 63.7629 153.736 63.728 153.701C64.5122 153.126 65.035 152.655 65.5055 152.028C65.1396 152.028 64.9304 152.237 64.2508 152.864C63.153 153.753 63.153 153.753 63.153 153.805C62.4733 154.38 62.0551 154.955 62.0028 155.06C62.3688 154.642 62.7347 154.224 63.153 153.858C63.153 153.892 63.153 153.927 63.153 153.962C63.153 153.962 63.1704 153.98 63.2052 154.014C63.3098 153.962 63.3098 153.962 63.4666 153.91C62.7347 154.589 62.3165 155.269 62.3165 155.269C62.5256 155.321 62.6302 155.217 62.7347 154.903C62.7696 154.938 62.787 154.973 62.787 155.008C62.8916 155.008 62.9961 155.008 63.4666 154.694C63.4666 154.694 60.6436 157.047 60.4867 157.203C60.4867 157.203 62.1074 156.315 62.6825 155.844C62.2642 156.262 62.2642 156.262 61.0618 157.256C61.1664 157.203 61.2709 157.099 61.3755 156.994C60.2776 157.726 60.2776 157.726 59.5457 158.563C59.8594 158.301 60.0685 158.144 60.3822 157.883C60.2253 158.092 59.7548 158.563 59.5457 159.033C59.6503 159.033 59.8594 159.033 61.2709 157.674C60.1731 158.929 59.9639 159.19 59.9117 159.661C60.0685 159.817 60.0685 159.817 60.8004 159.817C60.1731 160.288 59.3889 161.177 59.1798 161.699C59.2146 161.699 59.232 161.717 59.232 161.752C59.2843 161.752 59.3889 161.699 59.4412 161.699C58.6047 162.588 58.2387 162.85 57.0886 163.581ZM319.738 179.997C319.738 179.892 319.633 179.527 319.372 179.004C319.372 178.969 319.355 178.951 319.32 178.951C319.32 178.951 319.32 178.969 319.32 179.004C319.32 179.161 319.267 179.37 319.372 179.683C319.302 179.649 319.25 179.614 319.215 179.579C319.372 179.788 319.738 180.206 319.738 179.997ZM77.7388 136.71C77.2683 136.815 76.85 136.606 76.4318 136.815C75.8567 137.024 75.4908 137.285 74.7589 137.912C75.1771 137.547 75.2817 137.39 75.334 137.233C75.0726 137.128 74.1315 137.651 72.8246 138.644C74.9157 136.762 75.1771 136.449 75.334 136.187C75.2991 136.222 75.2642 136.24 75.2294 136.24C74.9157 136.449 74.4801 136.815 73.9224 137.337C74.027 137.181 74.027 137.181 74.0793 137.076C73.9747 137.076 73.8701 137.024 72.8246 138.017C72.8594 137.982 72.8768 137.947 72.8768 137.912C72.8246 137.912 72.7723 137.86 72.0927 138.383C72.1275 138.383 72.1624 138.383 72.1972 138.383C72.1972 138.488 72.1449 138.592 72.1972 138.697C72.1972 138.697 72.2146 138.697 72.2495 138.697C72.1449 138.801 72.0404 138.854 71.9358 138.906C71.8835 139.01 71.8835 139.01 71.8835 139.115C71.8835 139.115 71.901 139.115 71.9358 139.115C71.8835 139.115 70.3675 139.742 70.3675 140.16C70.472 140.213 70.472 140.213 70.5766 140.16C68.224 141.886 69.2696 142.147 69.2696 142.147C69.6878 142.252 71.413 141.729 73.0337 140.736C73.3996 140.526 73.8179 140.213 74.1315 140.004C74.7066 139.585 75.1248 139.01 75.7522 138.697C75.7522 138.662 75.7348 138.644 75.6999 138.644C75.7522 138.488 75.8567 138.174 77.7388 136.71ZM64.094 142.931L63.9371 143.088C64.3205 142.74 64.6865 142.408 65.035 142.095C64.6168 142.461 64.3031 142.774 64.094 142.931ZM173.775 117.837C173.775 117.803 173.775 117.785 173.775 117.785C174.455 117.576 175.082 117.524 176.285 117.419C175.396 117.524 175.187 117.733 175.03 118.047C176.337 118.517 177.487 119.353 178.898 119.563C180.101 119.824 180.781 119.353 181.042 119.144C181.146 119.092 181.356 118.935 181.617 118.674C181.617 118.639 181.617 118.622 181.617 118.622C181.565 118.569 181.565 118.569 181.199 118.465C180.728 118.308 180.781 118.151 181.146 117.837C179.735 117.89 179.108 117.576 178.376 117.21C177.487 116.74 176.807 116.53 175.291 116.53C174.716 116.53 174.35 116.583 173.827 116.635C173.88 117.001 173.932 117.367 173.2 117.262C173.723 117.367 174.037 117.419 174.559 117.471C173.984 117.471 173.618 117.471 173.096 117.419C173.2 117.524 173.514 117.837 173.775 117.837ZM221.819 122.961C221.715 123.013 221.715 123.013 221.61 123.013C222.081 123.065 222.551 123.013 223.022 123.065C224.643 123.274 226.211 123.797 227.832 123.954C228.929 124.059 229.661 123.954 229.818 123.797C229.661 123.431 226.891 123.013 226.891 123.013C226.159 122.961 225.531 122.752 224.852 122.647C223.597 122.699 222.656 121.758 221.401 121.811C221.088 121.811 221.035 121.915 220.983 122.02C221.192 122.386 221.663 122.542 221.819 122.961ZM182.924 120.033C182.924 120.033 182.941 120.033 182.976 120.033C184.963 120.033 186.218 119.563 186.793 119.301C186.845 119.249 186.949 119.197 187.054 119.197C186.322 118.569 184.597 117.942 183.551 117.994C182.192 118.047 182.035 119.51 182.453 119.876C182.663 120.033 182.872 120.033 182.924 120.033ZM235.883 123.64C235.883 123.605 235.9 123.571 235.935 123.536C234.523 122.647 233.321 122.333 231.909 122.386C231.282 122.386 230.864 122.49 230.184 122.752C230.341 122.699 230.811 122.856 231.596 123.118C233.164 123.64 235.464 124.477 235.883 123.64ZM316.653 173.567C316.653 173.532 316.636 173.462 316.601 173.358C316.444 173.096 316.026 172.573 315.765 172.469C315.817 172.626 316.078 173.044 316.235 173.253C316.34 173.358 316.601 173.671 316.653 173.567ZM318.274 176.651C318.274 176.616 318.274 176.581 318.274 176.547C318.222 176.494 318.065 176.442 317.96 176.39V176.442C317.96 176.703 318.222 176.703 318.274 176.651ZM319.633 181.618C319.599 181.583 319.581 181.548 319.581 181.513C319.477 181.513 319.477 181.513 319.424 181.513C319.25 181.548 319.18 181.74 319.215 182.088C319.215 182.053 319.198 182.018 319.163 181.984C319.163 182.036 319.163 182.088 319.686 183.134C319.895 182.977 320.156 182.663 319.633 181.618ZM318.745 177.592C318.779 177.592 318.814 177.557 318.849 177.488C318.849 177.453 318.849 177.435 318.849 177.435C318.692 177.331 318.536 177.174 318.483 177.174C318.431 177.226 318.64 177.54 318.745 177.592ZM145.126 117.262C145.179 117.315 146.067 117.524 146.12 117.524C146.381 117.524 146.642 117.471 146.747 117.471C146.799 117.367 146.747 117.315 146.642 117.21C146.747 117.21 146.852 117.21 146.904 117.158C147.74 117.524 147.74 117.524 149.465 116.792C149.675 117.367 149.675 117.367 152.759 116.321C152.707 116.374 152.654 116.478 152.602 116.53C152.393 116.74 152.393 116.74 152.393 116.844C152.428 116.844 152.602 116.809 152.916 116.74L153.02 116.53L153.073 116.478C153.125 116.269 153.125 116.217 153.073 116.112C152.707 115.955 152.602 115.955 151.713 116.06C151.818 115.955 151.975 115.799 152.132 115.694C151.504 115.694 150.982 115.955 150.406 116.008C150.406 116.06 150.459 116.269 150.982 116.269C150.668 116.374 150.302 116.426 149.936 116.53C149.727 116.583 149.413 116.583 148.054 116.896C148.089 116.966 148.106 117.018 148.106 117.053C147.897 117.001 147.74 117.001 147.479 117.001C147.897 116.896 148.106 116.792 148.42 116.635C147.949 116.53 147.583 116.478 147.008 116.426C147.322 116.426 147.793 116.269 148.054 116.164C148.472 116.269 149.361 116.53 149.465 116.112C149.413 116.112 149.413 116.06 149.361 116.06C149.1 115.955 148.838 116.008 148.577 115.903C147.949 115.589 147.845 115.642 147.74 115.642C147.74 115.694 147.74 115.694 147.845 115.955C146.956 116.112 146.172 116.53 145.231 116.478L145.074 116.53C145.126 116.687 145.126 116.687 145.126 116.74C145.074 116.792 145.022 116.792 144.76 116.687C144.76 116.792 144.76 116.792 144.76 116.949C144.76 116.949 144.743 116.949 144.708 116.949C144.447 116.844 144.133 116.792 143.558 116.844C143.506 117.001 143.506 117.105 143.558 117.315C145.074 117.262 145.074 117.262 145.126 117.262ZM317.229 174.612C317.176 174.455 317.072 174.403 317.072 174.351C317.037 174.351 317.019 174.351 317.019 174.351C316.967 174.403 317.019 174.56 317.281 174.978C317.333 174.926 317.333 174.769 317.229 174.612ZM138.748 117.001C139.167 116.949 139.898 116.844 140.683 116.896C140.16 117.001 140.16 117.001 140.16 117.053C140.16 117.053 140.16 117.071 140.16 117.105C139.794 117.158 139.585 117.21 139.323 117.21C139.48 117.628 140.003 117.628 141.362 117.315C141.258 117.367 141.153 117.419 141.049 117.471C141.153 117.471 141.31 117.471 141.415 117.471C141.31 117.628 141.101 117.89 141.624 117.837C141.937 117.785 142.46 117.628 142.617 117.576C142.652 117.576 142.687 117.576 142.721 117.576C142.356 117.367 141.99 117.367 141.467 117.471C141.676 117.419 141.78 117.367 141.99 117.262C141.937 117.21 141.885 117.21 141.833 117.21C142.251 117.105 142.652 117.001 143.035 116.896C143.035 116.635 142.983 116.164 141.571 116.217C140.561 116.252 139.48 116.496 138.33 116.949C138.539 117.001 138.644 117.001 138.748 117.001ZM301.597 437.053C300.97 437.366 300.342 437.732 299.715 438.098C301.597 436.791 301.597 436.791 301.649 436.582C301.545 436.582 301.336 436.634 301.179 436.687C297.781 438.569 294.644 440.973 291.089 442.542C286.018 444.79 286.018 444.79 284.711 445.574C281.94 447.09 281.679 447.456 281.627 447.717C282.881 448.188 296.892 440.294 300.604 437.732C300.918 437.523 301.283 437.209 301.597 437.053ZM299.82 438.412C300.708 438.359 308.603 433.027 311.269 430.831C311.304 430.796 311.338 430.762 311.373 430.727C310.798 430.936 310.38 431.459 309.857 431.72C310.014 431.459 310.014 431.459 313.308 428.583C312.837 428.949 312.314 429.368 311.792 429.786C312.035 429.542 312.279 429.315 312.523 429.106C309.282 431.877 299.924 438.359 299.82 438.412ZM341.12 362.398C336.676 368.149 334.899 375.572 329.671 380.8C326.639 383.833 325.855 377.716 325.855 377.664C325.75 375.834 325.75 375.834 331.187 365.692C330.873 366.058 330.873 366.058 329.828 367.051C329.88 366.371 330.246 365.796 330.351 365.169C329.671 366.581 329.671 366.581 324.704 363.496C322.77 367.208 322.77 367.208 321.777 367.469C319.686 367.992 316.758 370.397 315.503 375.311C314.562 374.788 314.405 374.788 313.046 375.311C313.203 373.534 311.216 373.063 310.851 371.599C310.589 371.913 305.414 377.193 302.852 378.239C302.747 379.337 302.643 379.65 302.12 380.8C302.068 380.696 302.015 380.539 301.963 380.434C301.597 380.8 301.597 380.8 301.179 381.741C301.179 381.166 301.179 380.539 301.597 378.709C300.342 379.441 299.349 380.068 296.735 383.153C294.174 386.133 293.337 386.76 291.978 387.492C289.73 388.799 287.116 389.008 284.763 390.054C281.783 391.361 279.692 394.288 276.19 394.602C276.19 394.288 276.294 393.766 276.451 393.504C271.432 396.066 269.916 401.817 269.289 404.221C268.975 405.528 268.975 405.528 268.557 405.947C268.557 405.685 268.557 405.319 268.452 405.058C265.263 408.822 266.413 414.154 263.59 418.075C261.917 420.428 259.094 421.787 257.631 424.453C257.526 424.61 257.578 424.924 257.578 425.133C259.042 426.335 263.224 424.715 266.257 423.512C266.466 423.408 286.384 416.089 290.043 418.807C290.096 419.487 290.096 419.487 286.541 425.603C289.207 423.774 292.187 422.258 294.696 420.166C293.076 423.355 289.521 424.14 286.959 426.178C288.057 426.022 288.423 425.76 291.298 423.669C291.194 423.826 291.194 423.826 287.9 426.649C287.935 426.649 287.952 426.632 287.952 426.597C288.109 426.649 288.266 426.701 288.371 426.754C287.534 429.263 284.293 429.995 283.979 432.87C284.397 433.184 284.397 433.184 289.364 431.616C288.737 432.243 288.737 432.243 288.109 432.504C288.266 432.504 288.423 432.504 288.58 432.504C288.371 433.079 288.371 433.079 287.586 433.968C308.759 424.035 321.515 409.815 326.011 404.169C325.802 404.43 325.489 404.796 325.28 405.11C325.698 404.552 326.133 403.995 326.586 403.437C326.482 403.542 326.377 403.699 326.325 403.803L326.43 403.646L326.534 403.542C326.639 403.385 326.796 403.176 326.952 403.019C326.848 403.123 326.743 403.28 326.639 403.385C327.214 402.601 328.887 400.353 329.985 397.477C330.926 394.968 332.076 392.511 332.964 390.001C333.696 387.753 333.174 385.244 334.219 383.101C338.611 374.422 338.611 374.422 338.715 371.39C338.924 366.005 339.97 364.385 341.225 362.398C341.225 362.398 341.242 362.398 341.277 362.398C341.242 362.363 341.225 362.346 341.225 362.346C341.19 362.346 341.155 362.363 341.12 362.398ZM50.3969 167.816C50.8674 167.607 53.4291 166.405 57.4546 161.49C57.8205 161.02 59.0752 159.504 58.2387 159.504C58.1865 159.504 58.1342 159.556 58.0819 159.556C56.4613 160.026 55.4157 161.386 53.9519 162.013C53.6905 162.745 53.4291 163.059 52.854 163.425C53.1154 163.738 52.5926 164.366 51.1811 165.777C50.4492 166.509 48.2012 168.757 50.3969 167.816ZM313.36 428.322C313.081 428.601 312.802 428.862 312.523 429.106C312.872 428.792 313.151 428.531 313.36 428.322ZM284.606 437.262C284.188 437.262 283.718 437.209 283.247 437.209C282.777 437.209 281.836 437.262 280.215 438.307C278.333 439.51 276.765 441.13 274.987 442.49C277.131 442.124 277.392 441.967 279.849 440.294C282.202 438.725 284.031 437.471 284.502 437.314C284.537 437.279 284.572 437.262 284.606 437.262ZM123.117 237.399C123.692 237.452 123.849 237.399 123.849 237.347C123.953 237.295 123.692 237.19 123.483 237.19C123.274 237.19 123.169 237.295 123.117 237.399ZM77.3206 207.078C77.3554 207.078 77.3728 207.078 77.3728 207.078H77.3206ZM49.9787 195.89V195.994C49.9264 196.256 49.8218 196.569 49.5082 197.563C48.8808 199.393 47.8352 202.477 48.724 201.902C49.5082 201.379 50.972 198.87 51.7039 197.354C52.5926 195.419 52.0698 195.419 51.913 195.472C51.8084 195.472 51.4425 195.524 50.6583 195.994C50.031 196.36 50.031 196.308 49.9787 195.89ZM28.9103 201.85C28.9103 201.85 28.9277 201.832 28.9625 201.797C28.9277 201.797 28.9103 201.815 28.9103 201.85ZM51.7562 194.844C52.0175 194.478 52.9063 193.276 53.795 191.446C54.0564 190.819 54.3178 190.296 54.3701 190.087C54.3178 190.087 54.2655 190.139 54.2133 190.139C53.0108 190.976 51.913 193.067 51.913 193.224C51.547 194.06 51.4948 194.426 51.7562 194.844ZM312.314 293.39C312.419 292.031 311.948 291.194 311.635 290.672C311.582 290.724 311.582 290.828 311.53 290.881C311.164 291.665 310.641 292.972 310.851 293.285C310.955 293.233 311.007 293.233 311.373 292.71C309.805 295.429 308.027 298.2 307.871 298.409L307.662 298.722C307.086 299.611 306.825 300.239 306.407 301.284C308.759 300.029 312.105 296.631 312.314 293.39ZM323.084 324.496C323.188 324.182 323.136 323.66 323.084 323.346C322.77 323.398 322.352 323.503 322.038 323.555C319.32 324.078 316.497 324.235 313.778 324.914C313.011 325.088 312.454 325.437 312.105 325.96C311.896 326.273 311.739 326.535 311.635 326.796C311.06 328.156 310.798 329.619 310.328 331.031C309.439 333.697 307.348 335.736 306.564 338.454C305.779 341.173 306.407 344.048 305.936 346.767C306.877 346.453 307.557 346.453 308.341 346.767C308.341 346.662 309.857 339.186 311.112 337.984C311.635 338.768 311.739 338.873 311.426 341.382C311.007 344.832 312.889 344.205 313.255 343.996C313.099 344.362 312.628 345.46 312.785 346.819C312.837 346.819 312.942 346.871 312.994 346.924C314.092 346.401 315.033 343.578 314.981 342.532C314.562 342.637 314.301 342.794 313.935 343.16C314.405 340.284 313.151 337.618 313.046 334.847C314.824 337.043 315.817 331.763 317.908 331.24C317.943 331.24 317.96 331.24 317.96 331.24C315.66 330.822 313.308 332.129 311.007 331.083C310.119 330.665 310.485 329.933 312.367 328.626C314.353 327.162 315.608 327.319 318.117 327.633C320.313 327.894 320.47 327.737 321.411 326.849C321.306 327.005 321.149 327.162 321.045 327.319C322.875 325.123 322.875 325.123 323.084 324.496ZM327.162 338.193C326.116 338.245 324.652 338.82 325.855 339.918C326.011 340.023 326.221 340.18 326.377 340.232C326.273 340.284 326.273 340.284 326.273 340.336C326.325 340.336 326.325 340.337 326.377 340.284C328.155 341.225 329.932 341.33 330.507 340.441C330.873 339.866 330.351 339.291 330.246 339.239C330.246 339.448 330.455 339.709 330.56 339.918C329.619 338.245 327.527 338.193 327.162 338.193ZM325.907 305.937C326.011 307.819 326.064 307.871 326.43 308.185C326.534 307.662 326.743 306.983 326.796 306.46C326.796 306.355 327.737 299.245 325.28 296.265C325.28 296.231 325.28 296.213 325.28 296.213C325.541 296.056 325.541 296.056 325.436 293.913C325.28 294.383 325.123 294.802 324.966 295.22C325.018 295.377 325.018 295.638 325.07 295.795C324.234 295.22 324.234 295.22 324.025 291.351C325.75 292.083 325.227 289.417 324.757 288.214C324.077 286.646 323.868 286.698 322.352 286.907C321.149 282.882 321.149 282.882 320.679 282.83C320.365 283.039 320.365 283.039 320.261 283.562C319.947 281.68 317.856 281.68 317.438 282.045C317.229 282.202 317.176 282.568 317.124 282.777C317.019 282.098 316.967 281.627 316.967 280.686C317.019 280.373 317.019 280.163 317.019 279.85C317.019 279.745 316.967 279.588 316.967 279.484C316.81 276.19 317.856 272.844 316.549 269.655C315.608 267.251 312.262 268.819 311.269 266.519L311.164 266.414C311.216 266.466 311.216 266.623 311.269 266.675C311.687 269.499 310.485 272.478 311.844 275.249C311.635 275.197 311.321 275.302 311.112 275.406C310.694 277.079 311.53 280.216 313.098 281.47C313.621 281.157 313.726 280.739 313.36 280.111C314.144 280.634 314.144 280.634 313.778 283.405C313.621 283.405 313.412 283.457 313.255 283.457C312.837 284.555 313.412 285.234 315.556 287.692C316.863 286.123 315.347 284.398 314.301 283.509C314.771 283.352 315.294 283.248 316.444 283.405C316.235 284.084 316.549 284.346 316.915 284.503C317.124 284.398 317.385 284.293 317.072 283.562C318.431 284.032 318.954 285.444 320.052 286.176C319.842 285.13 319.32 284.764 319.163 284.659C319.163 284.241 319.267 282.987 320.574 284.346C321.359 285.182 322.038 286.489 322.247 286.907C322.195 286.907 322.09 286.907 322.038 286.907C321.881 288.005 321.881 288.005 323.659 290.567C323.293 290.881 323.032 290.985 322.718 290.567C322.77 290.567 322.875 290.515 322.927 290.515C322.979 290.096 322.979 290.096 322.718 289.678C322.561 289.835 322.456 289.887 322.613 290.41L322.509 290.149C322.195 291.09 322.195 291.874 322.561 293.181C322.526 293.181 322.491 293.181 322.456 293.181C322.456 293.181 322.456 293.181 323.084 294.331L324.861 297.52C324.495 298.827 324.495 298.827 321.62 302.016C321.672 301.911 321.725 301.755 321.777 301.65C321.359 300.97 319.006 301.075 318.536 302.696C318.274 303.637 318.379 304.682 317.908 305.623C318.849 304.421 319.058 303.898 319.163 303.584C320.052 304.787 322.404 302.643 322.404 304.212C322.404 305.362 321.672 306.407 322.038 307.61C322.404 308.76 323.607 309.126 324.234 310.067C324.182 308.446 325.541 307.401 325.907 305.937ZM318.065 331.292C318.065 331.292 318.082 331.292 318.117 331.292C318.013 331.24 318.013 331.24 317.96 331.24C317.995 331.24 318.03 331.257 318.065 331.292ZM316.915 293.756C317.385 294.697 319.111 293.129 319.163 293.076C319.442 292.798 319.599 292.519 319.633 292.24C319.686 291.822 319.529 291.613 319.006 291.037C317.908 289.835 317.647 289.417 317.49 289.103C317.385 289.155 317.333 289.103 317.229 288.894C317.229 288.894 317.229 288.911 317.229 288.946C317.229 289.155 317.229 289.312 317.124 290.044C316.915 291.194 316.653 293.076 316.915 293.756ZM311.269 354.975L312.21 355.236C312.175 355.271 312.14 355.323 312.105 355.393C311.844 355.445 311.426 355.55 311.112 355.602C311.321 355.759 311.321 355.759 311.948 356.02L312.053 355.968C312.68 355.811 313.255 355.497 313.883 355.288C313.83 355.393 313.778 355.497 313.726 355.602C313.987 355.55 314.301 355.497 314.51 355.341C314.719 355.184 314.771 354.87 314.981 354.713C315.033 354.661 315.085 354.609 315.137 354.609C315.103 354.609 315.05 354.591 314.981 354.556C314.719 354.504 314.405 354.661 314.144 354.609C313.517 354.661 313.255 354.713 312.889 354.818C312.21 354.034 311.164 354.765 311.164 354.818C309.387 354.295 306.564 354.504 305.1 354.765C304.159 354.922 303.322 355.55 302.329 355.707C301.649 355.811 300.97 355.497 300.29 355.445C300.447 355.707 300.552 355.811 300.865 355.916C300.238 356.386 299.977 356.02 299.558 355.445C298.46 355.393 297.99 355.602 297.729 355.707C297.363 354.661 296.787 354.4 296.578 354.4C295.585 354.713 296.212 355.55 297.258 356.857L297.31 356.804C298.931 357.275 300.552 356.543 302.172 356.804C301.702 355.602 307.871 356.282 307.923 356.282C307.871 356.334 307.818 356.386 307.818 356.438C308.968 355.968 310.066 355.288 311.269 354.975ZM280.842 353.249C280.842 353.249 280.86 353.249 280.895 353.249C277.497 352.57 275.353 351.838 272.112 350.322C273.837 349.799 275.092 348.492 276.712 347.812C279.483 347.394 281.156 350.269 283.822 350.165C286.123 350.06 288.266 349.015 290.566 349.276C290.723 349.276 290.985 349.276 291.141 349.328C292.657 349.642 292.867 350.374 293.023 351.054C292.187 351.681 291.194 352.152 289.887 351.629C290.514 352.727 290.671 352.936 292.71 353.249C295.899 353.72 295.533 354.975 295.376 355.288C295.324 355.393 295.271 355.445 295.219 355.55C294.853 355.968 292.762 356.804 292.762 354.765C292.396 356.177 289.468 355.445 280.79 353.249C280.79 353.249 280.808 353.249 280.842 353.249ZM281.052 353.249C281.156 353.249 281.417 353.249 281.47 353.249C281.47 353.249 281.47 353.232 281.47 353.197C281.417 353.197 280.895 353.145 280.842 353.197C280.842 353.197 280.895 353.197 281.052 353.249ZM319.267 354.818C319.424 354.452 319.111 354.504 318.692 354.556C313.83 355.707 310.746 359.837 309.962 361.353C310.275 361.248 310.955 361.039 313.098 359.889C315.085 358.791 318.797 355.811 319.267 354.818ZM299.506 340.702C299.558 340.702 301.388 340.127 299.872 341.957C300.29 341.434 300.865 340.702 301.127 340.127C302.015 338.402 301.806 336.416 302.59 334.69C303.636 332.599 305.518 331.083 306.459 328.992C307.086 327.476 307.034 326.796 306.982 325.751C308.184 327.215 308.655 326.378 308.864 325.908C309.23 324.81 309.125 322.614 306.198 318.379C306.616 318.641 306.616 318.641 306.877 318.745C306.877 318.641 306.877 318.641 305.936 317.125C306.355 317.125 307.609 317.125 307.243 315.765C307.296 315.818 307.348 315.87 307.348 315.922C307.4 315.922 307.505 315.87 307.557 315.87C307.505 315.661 307.505 315.295 307.243 314.563C308.237 315.504 308.916 314.302 308.812 313.57C308.812 313.361 308.707 313.099 308.603 312.89L308.655 312.838C308.968 312.472 311.739 309.283 310.171 309.283C309.648 309.231 308.655 309.701 308.132 309.962C308.55 309.701 308.55 309.701 308.655 309.44C308.341 309.283 308.341 309.283 307.452 309.387C308.393 307.192 306.773 306.146 306.355 306.198C306.041 306.303 305.989 306.355 305.779 306.617C305.779 306.564 305.779 306.512 305.779 306.407C305.727 306.407 302.852 306.617 301.702 313.883C301.597 313.204 301.545 313.099 301.127 312.629C300.604 313.727 300.342 314.406 300.081 315.556C299.088 315.347 299.454 313.988 298.513 313.727C297.415 316.811 292.396 320.993 291.664 319.895C291.664 319.895 291.664 319.791 291.612 319.739C290.932 321.359 290.723 322.405 290.619 324.078C289.625 323.294 287.43 323.66 287.586 321.934C285.809 323.607 285.129 324.339 285.391 327.842C285.391 327.946 286.959 339.395 288.893 339.5C289.468 339.552 290.043 338.611 290.305 338.141C290.619 340.075 294.801 340.284 296.056 339.657C295.376 342.323 298.251 341.278 299.506 340.702ZM292.867 253.867C292.797 253.937 292.745 254.007 292.71 254.076C292.762 254.024 292.814 253.972 292.867 253.867ZM308.027 247.228C308.812 245.816 309.073 245.241 308.916 244.666C308.916 244.596 308.899 244.544 308.864 244.509C309.021 244.771 309.23 245.137 309.282 245.973C309.334 247.019 309.073 248.326 308.812 249.476C308.393 251.671 308.184 252.822 308.55 253.972C307.923 253.188 307.923 253.188 307.296 252.769C307.33 252.769 307.365 252.787 307.4 252.822C307.191 252.612 307.191 252.612 307.139 252.56C307.243 252.595 307.33 252.647 307.4 252.717C306.198 251.201 306.616 249.737 308.027 247.228ZM307.818 253.083L307.452 252.769C307.452 252.804 307.452 252.822 307.452 252.822L307.714 253.031L307.818 253.083ZM309.125 254.704C309.125 254.738 309.143 254.756 309.178 254.756C308.968 254.494 308.759 254.181 308.55 253.972C308.655 254.181 308.812 254.495 309.125 254.704ZM272.478 349.904C272.513 349.904 272.53 349.904 272.53 349.904C272.391 349.764 272.304 349.694 272.269 349.694C272.269 349.747 272.373 350.008 272.478 349.904ZM251.043 310.59C251.043 310.59 251.026 310.59 250.991 310.59C250.991 310.59 251.009 310.59 251.043 310.59ZM271.694 347.185C271.537 346.662 271.537 346.662 271.484 346.453H271.432C271.467 346.453 271.484 346.453 271.484 346.453C272.164 346.087 272.948 346.349 273.628 345.93C274.308 345.512 275.196 344.676 275.458 343.891C276.503 340.859 275.51 337.879 275.039 336.259C276.921 339.552 277.392 340.336 279.274 339.291C278.594 338.611 279.065 337.984 279.326 337.879C279.431 337.932 279.64 338.036 279.745 337.984L279.431 337.67L279.535 337.618C279.483 337.566 279.379 337.513 279.326 337.513V337.461C275.719 334.011 275.719 334.011 274.36 334.9C273.21 332.861 271.746 331.031 270.909 328.783C270.387 327.528 270.7 326.117 270.073 324.862C269.602 323.921 269.132 323.764 268.191 323.45C267.93 323.973 267.929 324.078 267.982 324.496C267.511 323.869 267.198 323.607 266.623 323.241C266.988 323.398 266.988 323.398 267.302 323.294C267.668 321.987 265.786 320.418 265.734 320.418C264.218 319.164 262.336 318.536 260.872 317.281C258.938 315.713 257.683 313.465 255.644 312.054C254.912 311.531 253.448 310.538 251.566 310.538C251.392 310.538 251.218 310.555 251.043 310.59C253.919 311.165 258.467 320.523 264.375 334.377C268.4 343.944 270.282 348.126 271.694 347.185ZM310.066 181.722C309.544 180.886 309.021 180.363 306.511 178.115C304.263 176.076 303.845 175.606 303.636 175.031C303.688 174.978 303.688 174.926 303.741 174.874C304.054 174.821 304.263 174.769 305.466 175.187C305.152 174.246 304.838 173.619 303.375 172.417C301.179 170.639 298.46 169.907 296.16 168.234C293.86 166.509 292.135 164.209 289.834 162.484C289.102 161.909 288.005 161.229 287.064 161.281C286.802 161.281 286.75 161.333 286.489 161.386C287.22 162.222 288.318 162.536 288.998 163.425C292.501 165.673 300.186 173.724 303.845 177.644C307.086 180.99 307.871 181.775 308.603 182.35C307.975 181.513 307.662 180.99 307.243 180.102C307.505 180.154 307.505 180.154 308.341 180.781C309.178 181.356 309.909 181.827 310.066 181.722ZM120.294 187.682C120.817 187.943 120.817 187.943 121.444 187.682C119.719 190.401 120.085 191.655 123.483 194.426C125.574 196.151 126.097 196.726 126.254 197.876C123.901 197.51 122.751 201.797 122.908 203.261C123.221 205.614 125.313 206.712 126.986 207.653C127.456 207.914 127.456 207.966 127.508 208.175C127.543 208.175 127.561 208.175 127.561 208.175V208.228C129.913 209.639 131.9 207.234 134.148 207.548C134.148 207.548 134.165 207.548 134.2 207.548C134.095 199.183 133.991 194.112 130.436 190.61C127.927 188.153 127.822 187.577 127.665 186.636C127.979 186.218 128.658 186.009 129.129 185.905C128.554 184.545 128.554 184.545 132.579 183.761C131.952 183.238 131.847 183.134 132.161 181.722C132.37 180.781 132.684 179.317 129.652 179.161C126.358 179.004 125.156 182.663 122.28 183.238C121.914 183.238 121.653 183.134 121.392 182.768C121.339 184.493 119.928 185.905 120.294 187.682ZM98.1276 181.618C97.4479 182.82 98.8595 183.081 102.728 183.761C103.042 182.872 103.617 181.409 104.662 181.775C104.61 181.304 104.61 181.252 104.087 180.99C103.617 180.729 103.617 180.677 103.617 180.154C104.506 180.258 105.394 179.997 106.335 179.37C106.44 179.265 106.544 179.161 106.649 179.108C104.767 178.115 101.264 179.317 98.8072 181.043C98.964 180.938 98.964 180.938 99.0163 180.886C99.0163 180.886 98.4935 181.252 98.2321 181.513C98.3367 181.409 98.4412 181.356 98.4935 181.252L98.2321 181.513H98.1798L98.1276 181.565V181.618ZM102.414 196.203C105.551 196.465 107.276 194.478 107.747 193.851C109.368 191.551 106.179 187.577 102.153 185.12C99.2777 183.343 96.3501 186.584 93.4747 185.12C93.3179 184.493 93.3179 184.493 95.8796 182.245C93.7884 181.095 92.3246 180.415 90.3903 181.409L90.1289 181.095L90.2857 181.356L90.338 181.409C88.5082 182.402 87.3058 184.545 85.8943 187.002C84.2736 189.825 83.6463 190.348 82.1302 191.551C82.7053 191.969 82.9667 192.126 83.4372 193.067C83.8031 193.851 84.4305 195.053 85.0578 195.21C88.6651 196.047 91.1745 192.126 94.7817 192.962C97.5002 193.59 99.5391 195.942 102.414 196.203ZM212.775 300.186C212.671 300.186 212.566 300.291 212.305 300.552C212.566 301.075 212.618 301.127 212.618 301.075C212.671 301.075 212.618 300.918 212.618 300.866C212.653 300.831 212.688 300.814 212.723 300.814L212.775 300.761C212.845 300.657 212.88 300.535 212.88 300.395C212.932 300.343 212.932 300.186 212.775 300.186ZM360.306 343.003C360.254 343.003 360.254 343.003 360.254 343.003C361.143 339.971 360.881 336.991 360.097 337.095C359.888 337.147 359.784 337.304 359.522 337.618C359.574 337.775 359.574 337.932 359.627 338.298C359.574 338.298 359.522 338.245 359.522 338.245C359.313 338.35 359.313 338.559 359.261 338.611C359.365 338.611 359.365 338.611 359.574 338.454C359.679 339.395 359.47 342.323 359.47 342.323C359.365 342.48 359.156 342.637 359.052 342.794C358.529 343.63 358.163 344.519 357.588 345.303C357.222 345.721 357.013 345.669 356.856 345.564C356.281 345.094 355.967 344.885 355.078 345.774C354.922 345.93 354.922 345.93 354.556 347.865C354.66 347.917 357.274 349.276 359.418 343.107C359.365 344.048 359.418 344.31 359.522 344.467C359.522 344.467 359.54 344.467 359.574 344.467V344.519C359.94 344.153 359.993 343.944 360.15 343.526L360.306 343.212V343.055L360.254 343.107C360.254 343.072 360.272 343.038 360.306 343.003ZM212.357 300.866C212.514 304.473 212.409 307.087 211.991 308.655C210.945 312.42 208.541 308.969 208.541 308.917C207.495 307.139 207.966 305.048 208.488 302.591C209.063 300.029 209.325 298.357 208.436 296.997C208.332 296.945 207.966 296.893 207.913 296.422L208.122 296.579C208.088 296.509 208.053 296.457 208.018 296.422C208.175 296.265 208.332 296.265 208.593 296.213C208.802 296.213 210.214 296.265 211.834 298.304C212.252 298.827 212.88 299.82 212.252 300.552C212.252 300.605 212.2 300.657 212.357 300.866ZM209.586 297.259C209.22 296.788 209.011 297.05 209.011 297.05C209.011 297.05 208.907 297.259 209.273 297.311C209.273 297.311 209.377 297.311 209.586 297.259ZM345.564 334.324C342.061 334.377 341.747 338.82 338.558 339.343C337.304 339.5 338.036 335.527 338.036 335.475C337.983 335.527 337.983 335.579 337.931 335.631C338.349 331.92 338.558 330.247 336.049 330.508C335.003 330.769 334.01 331.292 332.808 332.756C333.017 331.606 332.599 331.345 332.442 331.24C332.233 331.292 332.128 331.345 331.867 331.763C333.383 334.324 334.637 336.52 337.042 335.841C336.154 336.991 334.637 336.886 333.54 337.67C333.54 337.635 333.54 337.618 333.54 337.618C335.108 338.977 333.174 340.65 333.958 342.062C334.271 342.062 334.533 342.114 335.683 339.761C335.578 340.807 335.526 341.382 336.049 342.166C336.676 343.055 337.826 343.16 338.558 343.839C339.708 344.937 339.708 345.094 339.97 352.465C339.813 352.099 339.343 350.897 336.938 355.55C338.14 355.027 339.552 355.027 340.806 354.504C339.552 358.059 342.113 357.902 342.375 357.798C342.584 357.693 344.832 355.916 344.466 355.079C344.414 355.079 344.361 355.079 344.309 355.079C344.309 355.079 344.292 355.079 344.257 355.079C345.459 354.452 345.459 354.452 345.721 354.243C345.721 354.138 345.721 354.086 345.721 354.034L345.773 354.19C346.034 353.824 346.243 353.563 346.505 352.727C346.818 353.824 348.021 354.4 348.282 355.497C348.7 357.275 347.759 359.157 348.544 360.882C349.485 363.078 350.582 362.032 350.582 361.98C351.001 361.562 351.053 360.725 351.105 360.15C351.471 358.059 350.478 356.02 350.792 353.929C351.053 351.733 352.517 349.956 352.83 347.76C352.883 347.133 352.831 346.296 352.726 345.669C352.726 345.564 349.641 334.22 345.564 334.324ZM317.49 424.401C315.922 425.708 314.51 427.172 312.994 428.531C313.151 428.426 313.36 428.27 313.517 428.113C313.517 428.165 313.412 428.27 313.308 428.322C314.824 426.91 316.34 425.499 317.908 424.14C317.751 424.192 317.594 424.296 317.49 424.401ZM322.09 340.964C322.718 341.33 323.763 340.912 324.025 340.232C324.077 340.127 324.077 339.971 324.077 339.866C324.077 339.866 324.06 339.866 324.025 339.866C323.973 339.186 323.188 338.611 322.352 338.664C321.672 338.82 321.62 339.343 321.62 339.5C321.568 339.814 321.515 340.598 322.09 340.964ZM311.216 266.414L311.164 266.257C311.164 266.327 311.182 266.379 311.216 266.414ZM317.908 305.623C317.751 305.78 317.647 305.885 317.594 305.989C317.751 305.832 317.856 305.728 317.908 305.623ZM318.745 297.938C319.163 297.938 320.052 296.474 320.47 295.69C320.47 295.69 320.679 294.436 320.731 293.808C320.888 291.874 319.999 292.031 319.947 292.031C319.058 292.763 317.96 297.886 318.745 297.938ZM319.895 288.685C320.418 287.587 320.679 286.96 320.679 286.437C320.679 286.402 320.679 286.367 320.679 286.332C321.359 286.907 321.986 288.058 321.881 289.155C321.881 289.417 321.777 289.626 321.725 289.73C321.202 288.528 320.574 288.371 319.738 289.208L319.686 289.26C319.738 289.155 319.738 289.051 319.738 288.946C319.738 288.633 319.79 288.58 319.79 288.528C319.842 288.58 319.842 288.58 319.895 288.685ZM320.052 288.633L320.104 288.685V288.528L320.052 288.633ZM311.164 266.31C311.164 266.275 311.164 266.257 311.164 266.257V266.31ZM328.73 325.019C328.59 325.228 328.451 325.437 328.312 325.646C328.416 324.757 328.312 323.816 328.469 322.875C328.573 322.143 328.573 322.143 328.887 321.83C328.834 321.83 328.782 321.882 328.678 321.934C328.103 322.405 327.423 323.294 327.109 326.221C327.057 326.117 327.057 326.117 327.005 326.064C326.9 326.43 327.057 329.619 327.214 330.299C327.475 331.763 327.789 331.815 328.05 331.71C327.162 328.103 329.566 328.156 329.566 328.156C329.253 326.849 329.305 326.169 330.037 323.764C329.619 323.66 328.678 324.705 328.73 325.019ZM212.618 301.389C212.653 301.424 212.671 301.458 212.671 301.493C212.566 301.18 212.462 300.866 212.357 300.552C212.357 300.657 212.357 300.761 212.357 300.866C212.462 301.04 212.549 301.214 212.618 301.389ZM133.259 374.788L133.154 374.475C133.154 374.509 133.172 374.562 133.207 374.631C132.945 374.109 132.945 374.109 132.684 374.004C132.632 374.266 132.632 374.266 132.527 377.455C132.213 376.879 132.161 376.775 132.004 376.148C131.168 378.239 131.116 379.232 131.743 384.512C132.527 391.047 131.325 403.751 127.561 404.012C126.254 404.117 123.692 402.235 122.803 399.203C121.914 396.327 120.817 381.428 120.817 381.375C120.973 379.337 122.96 378.762 123.901 377.402C124.215 376.984 124.319 376.514 124.581 376.095C124.738 375.886 124.999 375.625 125.156 375.468C126.672 373.952 126.829 371.756 127.927 370.031C128.554 368.985 128.815 367.731 129.704 366.894C130.854 366.528 131.743 369.247 132.318 371.547C132.736 373.324 132.893 373.9 133.259 374.788ZM132.945 374.004C132.893 373.9 132.841 373.743 132.788 373.638C132.788 373.708 132.806 373.76 132.841 373.795C132.893 373.9 132.945 373.952 132.945 374.004Z" fill="#2F6E24"/>
<path d="M294.121 125.992C313.621 155.896 325.018 191.602 325.018 229.923C325.018 334.951 239.856 420.113 134.827 420.113C96.5069 420.113 60.8004 408.717 30.8969 389.217C64.8782 441.13 123.535 475.477 190.191 475.477C295.219 475.477 380.381 390.314 380.381 285.286C380.381 218.63 346.034 159.973 294.121 125.992Z" fill="#0A4378" fill-opacity="0.31"/>
<g style="mix-blend-mode:screen">
<path d="M5.64612 239.177C9.79358 239.56 13.9933 239.769 18.2453 239.804C88.09 239.804 144.708 183.186 144.708 113.341C144.673 109.089 144.464 104.89 144.081 100.742C76.1181 117.681 22.5845 171.214 5.64612 239.177Z" fill="white" fill-opacity="0.32"/>
</g>
<path d="M457.931 222.26C471.029 209.17 478.396 188.171 479.761 178.626C478.396 170.9 475.668 156.536 475.668 155.445C475.668 154.081 456.567 103.63 451.11 98.1753C446.744 93.8119 430.189 85.4505 422.458 81.8125L401.993 107.72L411.544 148.627C422.003 178.626 444.834 235.35 457.931 222.26Z" fill="#B96D2F"/>
<path d="M447.016 54.5391C447.016 54.5391 387.894 76.3561 369.249 79.0833C412.908 106.355 457.931 154.079 475.668 193.623C496.406 132.535 468.39 75.9034 451.109 57.2662L447.016 54.5391Z" fill="url(#paint0_linear_323_1373)"/>
<path d="M433.373 269.982C432.282 272.164 417.001 284.981 396.536 282.254L388.35 276.8L370.613 200.44L395.171 169.078L434.737 219.53C433.826 236.804 434.465 267.8 433.373 269.982Z" fill="#B96D2F"/>
<path d="M374.706 329.982C384.257 248.168 367.884 193.625 314.675 155.445C358.334 155.445 386.074 182.717 401.993 196.352C418.365 280.348 390.623 320.437 374.706 329.982Z" fill="url(#paint1_linear_323_1373)"/>
<g filter="url(#filter0_d_323_1373)">
<path d="M287.388 80.4495C286.297 93.5397 279.655 117.266 275.109 128.174C295.525 147.221 320.113 162.258 346.358 171.798C388.009 186.936 420.062 219.089 425.187 233.169C430.644 248.168 417.909 273.168 407.45 282.257C418.365 282.257 464.753 264.531 460.66 199.08C457.385 146.719 400.173 97.2677 371.978 79.0859L287.388 80.4495Z" fill="url(#paint2_linear_323_1373)"/>
</g>
<path d="M331.047 21.8165C287.388 23.9982 264.194 53.634 257.372 68.1778C268.287 73.632 286.477 90.4502 292.846 98.1762C322.861 91.3584 343.326 92.7219 361.063 94.0855C378.799 93.6328 421.367 87.8131 449.745 68.1778C478.123 48.5424 478.849 14.546 475.668 0C447.016 31.3615 385.621 19.0894 331.047 21.8165Z" fill="#002953"/>
<path d="M292.054 100.374C293.918 113.412 288.171 130.642 285.066 137.627C273.884 123.656 249.346 116.284 238.475 114.345C255.558 104.255 290.191 87.3356 292.054 100.374Z" fill="#E37F2D"/>
<path d="M258.276 65.4531C203.298 66.3858 193.824 104.645 191.883 123.658C206.793 113.415 229.933 113.183 239.639 114.348C261.756 115.643 285.298 107.818 292.846 99.5423C288.752 84.543 267.206 70.8856 258.276 65.4531Z" fill="url(#paint3_linear_323_1373)"/>
<path d="M307.853 73.6296C313.881 73.6296 318.768 68.7456 318.768 62.721C318.768 56.6964 313.881 51.8125 307.853 51.8125C301.825 51.8125 296.938 56.6964 296.938 62.721C296.938 68.7456 301.825 73.6296 307.853 73.6296Z" fill="white"/>
<path d="M304.074 67.706C307.842 67.706 310.896 64.6535 310.896 60.8881C310.896 57.1228 307.842 54.0703 304.074 54.0703C300.307 54.0703 297.252 57.1228 297.252 60.8881C297.252 64.6535 300.307 67.706 304.074 67.706Z" fill="black"/>
<defs>
<filter id="filter0_d_323_1373" x="271.109" y="79.0859" width="193.806" height="211.172" filterUnits="userSpaceOnUse" color-interpolation-filters="sRGB">
<feFlood flood-opacity="0" result="BackgroundImageFix"/>
<feColorMatrix in="SourceAlpha" type="matrix" values="0 0 0 0 0 0 0 0 0 0 0 0 0 0 0 0 0 0 127 0" result="hardAlpha"/>
<feOffset dy="4"/>
<feGaussianBlur stdDeviation="2"/>
<feComposite in2="hardAlpha" operator="out"/>
<feColorMatrix type="matrix" values="0 0 0 0 0 0 0 0 0 0 0 0 0 0 0 0 0 0 0.14 0"/>
<feBlend mode="normal" in2="BackgroundImageFix" result="effect1_dropShadow_323_1373"/>
<feBlend mode="normal" in="SourceGraphic" in2="effect1_dropShadow_323_1373" result="shape"/>
</filter>
<linearGradient id="paint0_linear_323_1373" x1="447.016" y1="110.445" x2="430.659" y2="144.542" gradientUnits="userSpaceOnUse">
<stop stop-color="#FFCC00"/>
<stop offset="1" stop-color="#FF9500"/>
</linearGradient>
<linearGradient id="paint1_linear_323_1373" x1="392.443" y1="189.534" x2="352.906" y2="242.735" gradientUnits="userSpaceOnUse">
<stop stop-color="#FFCC00"/>
<stop offset="1" stop-color="#FF9500"/>
</linearGradient>
<linearGradient id="paint2_linear_323_1373" x1="403.357" y1="114.539" x2="358.369" y2="180.014" gradientUnits="userSpaceOnUse">
<stop stop-color="#FFCC00"/>
<stop offset="1" stop-color="#FF9500"/>
</linearGradient>
<linearGradient id="paint3_linear_323_1373" x1="234.98" y1="73.6018" x2="245.453" y2="95.7262" gradientUnits="userSpaceOnUse">
<stop stop-color="#FFCC00"/>
<stop offset="1" stop-color="#FFA300"/>
</linearGradient>
</defs>
</svg>
