<svg xmlns="http://www.w3.org/2000/svg" enable-background="new 0 0 64 64" viewBox="0 0 64 64" id="route">
  <path d="M54.5,47h-12c-1.469,0-2.851-0.572-3.889-1.611S37,42.969,37,41.498c0-1.469,0.572-2.85,1.61-3.888
			c1.039-1.038,2.419-1.61,3.888-1.61h6.593c0.62,0,1.167-0.288,1.534-0.731C52.775,33.548,62,25.542,62,14.909
			C62,7.791,56.209,2,49.091,2c-7.118,0-12.909,5.791-12.909,12.909c0,7.359,4.354,13.462,7.734,17.091h-1.418
			c-2.537,0-4.922,0.988-6.716,2.782C33.988,36.575,33,38.961,33,41.5c0,2.538,0.988,4.923,2.782,6.717
			C37.576,50.012,39.961,51,42.5,51h12c1.93,0,3.5,1.57,3.5,3.5S56.43,58,54.5,58H20.084c3.379-3.629,7.734-9.732,7.734-17.091
			C27.818,33.791,22.027,28,14.909,28C7.791,28,2,33.791,2,40.909c0,11.778,11.324,20.337,11.806,20.695
			c0.009,0.006,0.019,0.008,0.028,0.014c0.152,0.109,0.32,0.195,0.499,0.259c0.036,0.013,0.072,0.023,0.109,0.034
			C14.62,61.963,14.805,62,15,62h39.5c4.136,0,7.5-3.364,7.5-7.5S58.636,47,54.5,47z M49.091,6C54.003,6,58,9.997,58,14.909
			c0,7.7-6.294,14.097-8.991,16.483c-2.661-2.389-8.827-8.759-8.827-16.483C40.182,9.997,44.179,6,49.091,6z M6,40.909
			C6,35.997,9.997,32,14.909,32c4.912,0,8.909,3.997,8.909,8.909c0,7.695-6.17,14.085-8.829,16.481C12.289,55.001,6,48.606,6,40.909
			z"></path>
  <path d="M55 15c0-3.309-2.691-6-6-6s-6 2.691-6 6 2.691 6 6 6S55 18.309 55 15zM47 15c0-1.103.897-2 2-2s2 .897 2 2-.897 2-2 2S47 16.103 47 15zM21 41c0-3.309-2.691-6-6-6s-6 2.691-6 6 2.691 6 6 6S21 44.309 21 41zM13 41c0-1.103.897-2 2-2s2 .897 2 2-.897 2-2 2S13 42.103 13 41z"></path>
</svg>
