<svg width="4" height="16" viewBox="0 0 4 16" fill="none" xmlns="http://www.w3.org/2000/svg">
<path d="M3.80001 13.4053C3.80001 13.9018 3.62326 14.325 3.26976 14.675C2.91626 15.025 2.49126 15.2 1.99476 15.2C1.49826 15.2 1.07501 15.0233 0.725012 14.6698C0.375012 14.3163 0.200012 13.8913 0.200012 13.3948C0.200012 12.8983 0.376763 12.475 0.730263 12.125C1.08376 11.775 1.50876 11.6 2.00526 11.6C2.50176 11.6 2.92501 11.7768 3.27501 12.1303C3.62501 12.4838 3.80001 12.9088 3.80001 13.4053ZM3.80001 8.00526C3.80001 8.50176 3.62326 8.92501 3.26976 9.27501C2.91626 9.62501 2.49126 9.80001 1.99476 9.80001C1.49826 9.80001 1.07501 9.62326 0.725012 9.26976C0.375012 8.91626 0.200012 8.49126 0.200012 7.99476C0.200012 7.49826 0.376762 7.07501 0.730262 6.72501C1.08376 6.37501 1.50876 6.20001 2.00526 6.20001C2.50176 6.20001 2.92501 6.37676 3.27501 6.73026C3.62501 7.08376 3.80001 7.50876 3.80001 8.00526ZM3.80001 2.60526C3.80001 3.10176 3.62326 3.52501 3.26976 3.87501C2.91626 4.22501 2.49126 4.40001 1.99476 4.40001C1.49826 4.40001 1.07501 4.22326 0.725012 3.86976C0.375012 3.51626 0.200012 3.09126 0.200012 2.59476C0.200012 2.09826 0.376762 1.67501 0.730262 1.32501C1.08376 0.975013 1.50876 0.800013 2.00526 0.800013C2.50176 0.800012 2.92501 0.976764 3.27501 1.33026C3.62501 1.68376 3.80001 2.10876 3.80001 2.60526Z" fill="#101F27"/>
</svg>
